<svg width="20" height="16" viewBox="0 0 20 16" fill="none" xmlns="http://www.w3.org/2000/svg">
<path d="M7.5 0C3.36 0 0 2.69 0 6C0 7.89 1.08 9.56 2.78 10.66L2 13L4.5 11.5C5.39 11.81 6.37 12 7.41 12C7.15 11.37 7 10.7 7 10C7 6.69 10.13 4 14 4C14.19 4 14.38 4 14.56 4.03C13.54 1.69 10.78 0 7.5 0ZM4.5 2.5C4.76522 2.5 5.01957 2.60536 5.20711 2.79289C5.39464 2.98043 5.5 3.23478 5.5 3.5C5.5 3.76522 5.39464 4.01957 5.20711 4.20711C5.01957 4.39464 4.76522 4.5 4.5 4.5C4.23478 4.5 3.98043 4.39464 3.79289 4.20711C3.60536 4.01957 3.5 3.76522 3.5 3.5C3.5 3.23478 3.60536 2.98043 3.79289 2.79289C3.98043 2.60536 4.23478 2.5 4.5 2.5ZM9.5 2.5C9.76522 2.5 10.0196 2.60536 10.2071 2.79289C10.3946 2.98043 10.5 3.23478 10.5 3.5C10.5 3.76522 10.3946 4.01957 10.2071 4.20711C10.0196 4.39464 9.76522 4.5 9.5 4.5C9.23478 4.5 8.98043 4.39464 8.79289 4.20711C8.60536 4.01957 8.5 3.76522 8.5 3.5C8.5 3.23478 8.60536 2.98043 8.79289 2.79289C8.98043 2.60536 9.23478 2.5 9.5 2.5ZM14 5C10.69 5 8 7.24 8 10C8 12.76 10.69 15 14 15C14.67 15 15.31 14.92 15.91 14.75L18 16L17.38 14.13C18.95 13.22 20 11.71 20 10C20 7.24 17.31 5 14 5ZM12 7.5C12.2652 7.5 12.5196 7.60536 12.7071 7.79289C12.8946 7.98043 13 8.23478 13 8.5C13 8.76522 12.8946 9.01957 12.7071 9.20711C12.5196 9.39464 12.2652 9.5 12 9.5C11.7348 9.5 11.4804 9.39464 11.2929 9.20711C11.1054 9.01957 11 8.76522 11 8.5C11 8.23478 11.1054 7.98043 11.2929 7.79289C11.4804 7.60536 11.7348 7.5 12 7.5ZM16 7.5C16.2652 7.5 16.5196 7.60536 16.7071 7.79289C16.8946 7.98043 17 8.23478 17 8.5C17 8.76522 16.8946 9.01957 16.7071 9.20711C16.5196 9.39464 16.2652 9.5 16 9.5C15.7348 9.5 15.4804 9.39464 15.2929 9.20711C15.1054 9.01957 15 8.76522 15 8.5C15 8.23478 15.1054 7.98043 15.2929 7.79289C15.4804 7.60536 15.7348 7.5 16 7.5Z" fill="#F8BD48"/>
</svg>
