<svg width="64" height="63" viewBox="0 0 64 63" fill="none" xmlns="http://www.w3.org/2000/svg">
<mask id="path-1-inside-1_54755_25098" fill="white">
<path fill-rule="evenodd" clip-rule="evenodd" d="M6.62518 0.57925C5.08456 1.66188 3.92981 2.99737 2.68906 5.13137C2.00481 6.30825 1.34856 7.24575 0.539059 8.2025L-0.00244141 8.8425L0.0301836 14.515L0.0626836 20.1875L1.00018 20.1704C2.68781 20.1396 3.97481 19.4004 4.93918 17.9077C6.04868 16.1905 6.21131 15.9794 6.64631 15.69C7.23368 15.2992 7.75031 15.16 7.74981 15.3927C7.74956 15.4861 7.63481 16.1531 7.49456 16.875C7.35443 17.5969 7.04456 19.5624 6.80618 21.2428C6.56768 22.9231 6.29643 24.4138 6.20356 24.5553C6.11056 24.6968 5.71618 25.0938 5.32718 25.4375C4.11568 26.508 3.09618 28.1712 2.69106 29.7384C1.94493 32.6252 2.77031 36.6386 4.75031 39.75C5.03468 40.1969 5.80443 41.0771 6.46068 41.7061C7.49106 42.6936 7.66756 42.9229 7.75193 43.3849C7.91643 44.2844 7.70243 45.2256 7.02756 46.5706C6.14493 48.3295 5.87031 49.2995 5.79081 50.9375C5.64181 54.0056 6.72093 56.7166 8.95793 58.8947C10.9834 60.867 13.3766 61.8357 17.5002 62.3529C18.4971 62.4779 19.3774 62.5581 19.4567 62.5314C19.5358 62.5046 19.6361 62.2936 19.6794 62.0626C19.9761 60.4816 21.7162 58.3829 23.3922 57.5848C28.6527 55.0799 38.1156 55.4609 42.0313 58.3354C43.1289 59.1411 44.0124 60.4564 44.4371 61.9168C44.6006 62.4794 44.6912 62.6219 44.8543 62.5735C44.9689 62.5395 45.9627 62.394 47.0627 62.2503C49.3292 61.9539 50.5531 61.6701 51.8218 61.147C54.2213 60.1575 56.3108 58.2032 57.3917 55.9375C58.0728 54.5096 58.2657 53.6653 58.3414 51.7791C58.4253 49.6881 58.2509 48.8956 57.2302 46.7275C56.7167 45.6369 56.4619 44.9291 56.4133 44.4585C56.2831 43.1966 56.3799 42.9991 57.8504 41.5265C60.0814 39.2925 61.2453 36.8199 61.6322 33.4921C62.0269 30.0961 61.1149 27.5393 58.7047 25.2845L57.8856 24.5182L57.4961 21.7904C57.2818 20.29 56.9408 18.2245 56.7384 17.2004C56.5359 16.1761 56.3922 15.3164 56.4188 15.2898C56.4454 15.263 56.7418 15.3481 57.0774 15.4786C57.7549 15.7421 58.2641 16.3065 59.2916 17.9325C59.9594 18.9894 60.5458 19.4838 61.5988 19.8778C62.5231 20.2236 63.8578 20.3538 64.0103 20.113C64.0713 20.0165 64.1222 17.4138 64.1233 14.3293L64.1252 8.72087L63.4689 8.00988C63.1081 7.61875 62.3378 6.51437 61.7573 5.55562C59.8997 2.4875 58.8932 1.35475 57.1142 0.33025L56.5407 0H53.4067H50.2727L49.6677 0.481C49.3349 0.745625 48.4809 1.58937 47.7699 2.356C47.0589 3.12275 46.3778 3.75 46.2564 3.75C46.1351 3.75 45.0452 3.52725 43.8343 3.25487C39.7656 2.33975 36.4437 1.98337 32.0304 1.98875C27.9549 1.99362 23.8767 2.431 20.4312 3.23288C18.0337 3.79088 17.9161 3.8055 17.5832 3.58737C17.4232 3.48262 16.9111 2.945 16.4449 2.39275C15.9789 1.84038 15.2258 1.07612 14.7714 0.69425L13.9454 0L10.6916 0.004125L7.43768 0.008375L6.62518 0.57925ZM0.0578086 14.4375C0.0578086 17.6 0.0740586 18.8759 0.0938086 17.2726C0.113684 15.6695 0.113559 13.082 0.0938086 11.5226C0.0739336 9.96337 0.0578086 11.275 0.0578086 14.4375ZM17.1632 20.2499C15.5026 21.2022 14.5429 23.8695 15.0466 26.133C15.8298 29.6535 18.3741 31.0754 20.4886 29.1741C22.5367 27.3328 22.7056 23.1202 20.8196 20.917C19.8869 19.8274 18.3794 19.5524 17.1632 20.2499ZM44.6423 20.0461C43.6277 20.4134 42.6129 21.8204 42.2414 23.375C41.5671 26.1978 42.9377 29.421 45.0004 29.8634C46.5376 30.193 47.7584 29.4956 48.5556 27.8325C49.9574 24.9075 49.0177 21.028 46.6696 20.0469C46.1719 19.839 45.2158 19.8386 44.6423 20.0461ZM28.2502 29.1905C22.8914 29.934 17.9169 32.2134 15.7751 34.9067C14.1047 37.0074 13.5099 38.8509 12.5594 44.875C12.3641 46.113 12.1773 46.6876 11.2748 48.8265C10.0958 51.6211 10.7923 54.5617 12.9301 55.8146C16.3169 57.7995 23.4424 55.0479 29.7444 49.3214C30.3943 48.7309 31.1697 48.1298 31.4673 47.9856C32.3042 47.5805 32.6689 47.7133 34.0244 48.9156C38.6787 53.0445 42.7112 55.3934 46.6389 56.2635C48.3693 56.6468 49.8106 56.5574 50.8526 56.002C52.4684 55.1407 53.3664 53.7289 53.4679 51.89C53.5401 50.5831 53.3592 49.81 52.5594 48.0064C51.9002 46.5192 51.7383 45.8764 51.3781 43.3125C51.0486 40.9683 50.3822 38.347 49.8078 37.1361C48.6312 34.6556 46.6589 32.8165 43.6854 31.427C41.3019 30.3131 38.6709 29.5566 35.8752 29.1811C34.2291 28.9601 29.8727 28.9654 28.2502 29.1905ZM25.3181 34.1276C23.3751 34.4257 22.8209 34.5884 22.4363 34.973C21.9697 35.4396 21.9419 35.7553 22.2496 37.0976C22.6511 38.85 23.0096 39.53 24.1148 40.6356C25.5983 42.1195 27.5951 43.0847 28.9303 42.9632C29.4338 42.9175 29.6159 42.831 29.9166 42.4945L30.2853 42.0817L30.2106 40.3221C30.0539 36.6384 29.2196 34.3855 27.8679 33.9979C27.3198 33.8408 27.1227 33.8507 25.3181 34.1276ZM36.0002 34.1574C35.1984 34.5813 34.7252 35.567 34.3056 37.6875C33.8756 39.8602 33.7804 41.4116 34.0394 42.0285C34.2782 42.5971 34.8972 42.9989 35.5354 42.9995C37.1747 43.0011 40.2181 41.0807 41.1816 39.4367C41.5301 38.842 41.9614 37.4203 42.1259 36.3245C42.2794 35.3013 42.0952 34.9752 41.1669 34.628C40.5031 34.3796 39.0791 34.125 37.3127 33.9389C36.6704 33.8712 36.4819 33.9026 36.0002 34.1574ZM14.6277 48.719C13.2549 49.4086 13.3032 51.2755 14.7098 51.8976C15.2168 52.1219 15.3499 52.1348 15.7939 52.0016C16.4593 51.8024 17.0821 51.1695 17.1926 50.5806C17.2603 50.2194 17.2141 49.9893 16.9837 49.5418C16.4923 48.5876 15.5464 48.2574 14.6277 48.719ZM48.1877 48.5899C47.2882 48.809 46.8007 50.3496 47.3412 51.2646C47.5622 51.6388 48.3938 52.125 48.8127 52.125C49.3513 52.125 50.1072 51.616 50.3677 51.078C50.6844 50.4237 50.6857 50.2078 50.3767 49.527C50.0277 48.7581 49.1099 48.3652 48.1877 48.5899Z"/>
</mask>
<path fill-rule="evenodd" clip-rule="evenodd" d="M6.62518 0.57925C5.08456 1.66188 3.92981 2.99737 2.68906 5.13137C2.00481 6.30825 1.34856 7.24575 0.539059 8.2025L-0.00244141 8.8425L0.0301836 14.515L0.0626836 20.1875L1.00018 20.1704C2.68781 20.1396 3.97481 19.4004 4.93918 17.9077C6.04868 16.1905 6.21131 15.9794 6.64631 15.69C7.23368 15.2992 7.75031 15.16 7.74981 15.3927C7.74956 15.4861 7.63481 16.1531 7.49456 16.875C7.35443 17.5969 7.04456 19.5624 6.80618 21.2428C6.56768 22.9231 6.29643 24.4138 6.20356 24.5553C6.11056 24.6968 5.71618 25.0938 5.32718 25.4375C4.11568 26.508 3.09618 28.1712 2.69106 29.7384C1.94493 32.6252 2.77031 36.6386 4.75031 39.75C5.03468 40.1969 5.80443 41.0771 6.46068 41.7061C7.49106 42.6936 7.66756 42.9229 7.75193 43.3849C7.91643 44.2844 7.70243 45.2256 7.02756 46.5706C6.14493 48.3295 5.87031 49.2995 5.79081 50.9375C5.64181 54.0056 6.72093 56.7166 8.95793 58.8947C10.9834 60.867 13.3766 61.8357 17.5002 62.3529C18.4971 62.4779 19.3774 62.5581 19.4567 62.5314C19.5358 62.5046 19.6361 62.2936 19.6794 62.0626C19.9761 60.4816 21.7162 58.3829 23.3922 57.5848C28.6527 55.0799 38.1156 55.4609 42.0313 58.3354C43.1289 59.1411 44.0124 60.4564 44.4371 61.9168C44.6006 62.4794 44.6912 62.6219 44.8543 62.5735C44.9689 62.5395 45.9627 62.394 47.0627 62.2503C49.3292 61.9539 50.5531 61.6701 51.8218 61.147C54.2213 60.1575 56.3108 58.2032 57.3917 55.9375C58.0728 54.5096 58.2657 53.6653 58.3414 51.7791C58.4253 49.6881 58.2509 48.8956 57.2302 46.7275C56.7167 45.6369 56.4619 44.9291 56.4133 44.4585C56.2831 43.1966 56.3799 42.9991 57.8504 41.5265C60.0814 39.2925 61.2453 36.8199 61.6322 33.4921C62.0269 30.0961 61.1149 27.5393 58.7047 25.2845L57.8856 24.5182L57.4961 21.7904C57.2818 20.29 56.9408 18.2245 56.7384 17.2004C56.5359 16.1761 56.3922 15.3164 56.4188 15.2898C56.4454 15.263 56.7418 15.3481 57.0774 15.4786C57.7549 15.7421 58.2641 16.3065 59.2916 17.9325C59.9594 18.9894 60.5458 19.4838 61.5988 19.8778C62.5231 20.2236 63.8578 20.3538 64.0103 20.113C64.0713 20.0165 64.1222 17.4138 64.1233 14.3293L64.1252 8.72087L63.4689 8.00988C63.1081 7.61875 62.3378 6.51437 61.7573 5.55562C59.8997 2.4875 58.8932 1.35475 57.1142 0.33025L56.5407 0H53.4067H50.2727L49.6677 0.481C49.3349 0.745625 48.4809 1.58937 47.7699 2.356C47.0589 3.12275 46.3778 3.75 46.2564 3.75C46.1351 3.75 45.0452 3.52725 43.8343 3.25487C39.7656 2.33975 36.4437 1.98337 32.0304 1.98875C27.9549 1.99362 23.8767 2.431 20.4312 3.23288C18.0337 3.79088 17.9161 3.8055 17.5832 3.58737C17.4232 3.48262 16.9111 2.945 16.4449 2.39275C15.9789 1.84038 15.2258 1.07612 14.7714 0.69425L13.9454 0L10.6916 0.004125L7.43768 0.008375L6.62518 0.57925ZM0.0578086 14.4375C0.0578086 17.6 0.0740586 18.8759 0.0938086 17.2726C0.113684 15.6695 0.113559 13.082 0.0938086 11.5226C0.0739336 9.96337 0.0578086 11.275 0.0578086 14.4375ZM17.1632 20.2499C15.5026 21.2022 14.5429 23.8695 15.0466 26.133C15.8298 29.6535 18.3741 31.0754 20.4886 29.1741C22.5367 27.3328 22.7056 23.1202 20.8196 20.917C19.8869 19.8274 18.3794 19.5524 17.1632 20.2499ZM44.6423 20.0461C43.6277 20.4134 42.6129 21.8204 42.2414 23.375C41.5671 26.1978 42.9377 29.421 45.0004 29.8634C46.5376 30.193 47.7584 29.4956 48.5556 27.8325C49.9574 24.9075 49.0177 21.028 46.6696 20.0469C46.1719 19.839 45.2158 19.8386 44.6423 20.0461ZM28.2502 29.1905C22.8914 29.934 17.9169 32.2134 15.7751 34.9067C14.1047 37.0074 13.5099 38.8509 12.5594 44.875C12.3641 46.113 12.1773 46.6876 11.2748 48.8265C10.0958 51.6211 10.7923 54.5617 12.9301 55.8146C16.3169 57.7995 23.4424 55.0479 29.7444 49.3214C30.3943 48.7309 31.1697 48.1298 31.4673 47.9856C32.3042 47.5805 32.6689 47.7133 34.0244 48.9156C38.6787 53.0445 42.7112 55.3934 46.6389 56.2635C48.3693 56.6468 49.8106 56.5574 50.8526 56.002C52.4684 55.1407 53.3664 53.7289 53.4679 51.89C53.5401 50.5831 53.3592 49.81 52.5594 48.0064C51.9002 46.5192 51.7383 45.8764 51.3781 43.3125C51.0486 40.9683 50.3822 38.347 49.8078 37.1361C48.6312 34.6556 46.6589 32.8165 43.6854 31.427C41.3019 30.3131 38.6709 29.5566 35.8752 29.1811C34.2291 28.9601 29.8727 28.9654 28.2502 29.1905ZM25.3181 34.1276C23.3751 34.4257 22.8209 34.5884 22.4363 34.973C21.9697 35.4396 21.9419 35.7553 22.2496 37.0976C22.6511 38.85 23.0096 39.53 24.1148 40.6356C25.5983 42.1195 27.5951 43.0847 28.9303 42.9632C29.4338 42.9175 29.6159 42.831 29.9166 42.4945L30.2853 42.0817L30.2106 40.3221C30.0539 36.6384 29.2196 34.3855 27.8679 33.9979C27.3198 33.8408 27.1227 33.8507 25.3181 34.1276ZM36.0002 34.1574C35.1984 34.5813 34.7252 35.567 34.3056 37.6875C33.8756 39.8602 33.7804 41.4116 34.0394 42.0285C34.2782 42.5971 34.8972 42.9989 35.5354 42.9995C37.1747 43.0011 40.2181 41.0807 41.1816 39.4367C41.5301 38.842 41.9614 37.4203 42.1259 36.3245C42.2794 35.3013 42.0952 34.9752 41.1669 34.628C40.5031 34.3796 39.0791 34.125 37.3127 33.9389C36.6704 33.8712 36.4819 33.9026 36.0002 34.1574ZM14.6277 48.719C13.2549 49.4086 13.3032 51.2755 14.7098 51.8976C15.2168 52.1219 15.3499 52.1348 15.7939 52.0016C16.4593 51.8024 17.0821 51.1695 17.1926 50.5806C17.2603 50.2194 17.2141 49.9893 16.9837 49.5418C16.4923 48.5876 15.5464 48.2574 14.6277 48.719ZM48.1877 48.5899C47.2882 48.809 46.8007 50.3496 47.3412 51.2646C47.5622 51.6388 48.3938 52.125 48.8127 52.125C49.3513 52.125 50.1072 51.616 50.3677 51.078C50.6844 50.4237 50.6857 50.2078 50.3767 49.527C50.0277 48.7581 49.1099 48.3652 48.1877 48.5899Z" stroke="#64748B" stroke-width="4" mask="url(#path-1-inside-1_54755_25098)"/>
</svg>
