<svg width="24" height="24" viewBox="0 0 24 24" fill="none" xmlns="http://www.w3.org/2000/svg">
<g clip-path="url(#clip0_54630_36552)">
<path d="M23.219 12.8436H19.2001C15.6896 12.8436 12.8439 15.6894 12.8439 19.1999V23.2187C18.3844 22.8079 22.8081 18.3842 23.219 12.8436Z" fill="#775732"/>
<path d="M11.1565 23.2187V19.1999C11.1565 15.6894 8.31068 12.8436 4.80021 12.8436H0.781372C1.19218 18.3842 5.61589 22.8079 11.1565 23.2187Z" fill="#775732"/>
<path d="M23.219 11.1562C22.8081 5.61558 18.3844 1.19188 12.8439 0.781067V4.7999C12.8439 8.31037 15.6896 11.1562 19.2001 11.1562H23.219Z" fill="#775732"/>
<path d="M11.1565 0.781067C5.61589 1.19188 1.19218 5.61558 0.781372 11.1562H4.80021C8.31068 11.1562 11.1565 8.31037 11.1565 4.7999V0.781067Z" fill="#775732"/>
<path d="M8.39038 11.9999C9.94991 11.2206 11.2209 9.94967 12.0001 8.39014C12.7793 9.94967 14.0502 11.2206 15.6098 11.9999C14.0502 12.779 12.7793 14.05 12.0001 15.6095C11.2209 14.05 9.94991 12.779 8.39038 11.9999Z" fill="#CA9352"/>
</g>
<defs>
<clipPath id="clip0_54630_36552">
<rect width="22.5" height="22.5" fill="white" transform="translate(0.75 0.75)"/>
</clipPath>
</defs>
</svg>
