<svg width="64" height="64" viewBox="0 0 64 64" fill="none" xmlns="http://www.w3.org/2000/svg">
<path fill-rule="evenodd" clip-rule="evenodd" d="M17.4812 10.1948C15.918 11.0684 7.78154 18.7619 7.18562 19.93C6.79134 20.7026 7.03802 21.5187 7.80746 21.9879C8.52171 22.4233 9.11739 22.2664 10.2491 21.3446C11.0859 20.663 11.5757 20.3707 11.8819 20.3702C12.2178 20.3696 12.7868 21.1068 13.1338 21.9923C13.5533 23.0627 13.965 23.7097 14.6306 24.3448L15.2344 24.9209L15.1408 25.7467C15.0895 26.2009 14.965 27.6268 14.8643 28.9153C14.7636 30.2038 14.6527 31.621 14.6176 32.0646C14.5259 33.2271 14.3654 34.0876 14.098 34.8516C13.6863 36.0278 13.4089 37.9289 13.409 39.5731C13.4092 41.8369 13.6203 43.0506 14.3859 45.1917C15.9333 49.5193 19.6138 53.2567 22.9629 53.9014C23.41 53.9876 26.532 54.016 32.8903 53.9916L42.1655 53.9563L43.0872 53.584C46.2968 52.288 49.4205 48.6024 50.6818 44.6235C51.3267 42.5889 51.3776 42.2318 51.3797 39.7267C51.3819 37.1794 51.2454 36.1967 50.6812 34.6979C50.5286 34.2923 50.4031 33.7412 50.4024 33.4733C50.4017 33.2055 50.3271 32.2863 50.2365 31.4308C50.039 29.5665 49.8626 27.5279 49.7629 25.9579L49.6898 24.8057L50.2166 24.3704C50.8218 23.8702 51.1803 23.3031 51.7355 21.9665C52.1746 20.9097 52.6119 20.3698 53.0287 20.3698C53.3508 20.3698 53.8105 20.6676 54.5828 21.3768C55.501 22.2197 56.0898 22.373 56.9348 21.9894C57.7712 21.6096 58.0243 20.7287 57.5591 19.8167C57.2046 19.1219 52.5331 14.475 50.1253 12.422C47.7812 10.4233 47.1735 10 46.6491 10C46.0805 10 45.0474 10.8245 42.9144 12.9808L41.0133 14.9027L32.3718 14.8421L23.7303 14.7816L22.8171 13.8022C21.828 12.7415 20.7199 11.7131 19.499 10.7227C18.6003 9.99355 18.0834 9.8584 17.4812 10.1948ZM21.7547 25.0764C21.2862 25.3735 21.0907 25.9626 21.1701 26.8382C21.2449 27.6637 21.5367 28.1962 22.0636 28.4692C22.4065 28.6468 22.7108 28.6712 24.2176 28.6421C25.9617 28.6082 25.9742 28.606 26.2916 28.2887C26.5872 27.993 26.6137 27.8898 26.6501 26.8958C26.6863 25.9059 26.6684 25.798 26.4197 25.5103C26.1081 25.1499 25.4704 25.0245 23.3847 24.9138C22.2474 24.8534 22.0801 24.87 21.7547 25.0764ZM40.1491 24.9723C39.0095 25.0464 38.7448 25.1328 38.362 25.5563C38.0447 25.907 38.0315 27.5418 38.3423 28.016C38.7879 28.6962 39.1207 28.7925 40.8981 28.7563C42.3737 28.7259 42.5432 28.7004 42.8873 28.4548C43.4674 28.0412 43.6531 27.587 43.6493 26.5916C43.6427 24.8876 43.3736 24.7631 40.1491 24.9723ZM31.373 29.7052C28.8864 30.1248 26.5797 31.6475 24.7627 34.0684C23.7813 35.3762 22.7539 37.4104 22.1895 39.1635C21.1716 42.3253 19.7569 47.3606 19.756 47.8254C19.7537 48.9094 21.4349 50.4392 23.0656 50.8368C23.7626 51.0066 24.7952 51.0234 32.7751 50.9937L41.7046 50.9606L42.3502 50.6918C43.5187 50.2053 44.8682 48.9445 45.0667 48.1536C45.1743 47.7247 44.861 46.533 42.8362 39.669C42.6118 38.9086 42.1283 37.6642 41.7615 36.9038C40.6765 34.6539 39.6572 33.2876 38.0763 31.9644C35.8763 30.1229 33.548 29.3382 31.373 29.7052ZM29.5217 32.8429C29.1239 33.1692 28.8576 33.928 28.8576 34.7348C28.8576 35.523 29.0787 35.9542 29.6127 36.2076C30.0607 36.4203 30.3978 36.4104 31.765 36.1444C32.4504 36.0111 32.6662 36.0182 33.6169 36.2051C34.9095 36.4593 35.4211 36.3559 35.7793 35.7685C36.21 35.0621 36.0156 33.5015 35.4232 32.909L35.0972 32.583L32.4671 32.5836C29.9121 32.5842 29.828 32.5916 29.5217 32.8429Z" fill="#BFC8CB"/>
<path fill-rule="evenodd" clip-rule="evenodd" d="M17.4811 10.1948C15.9179 11.0684 7.78141 18.7619 7.1855 19.93C6.79122 20.7026 7.0379 21.5187 7.80734 21.9879C8.52158 22.4233 9.11727 22.2664 10.249 21.3446C11.0858 20.663 11.5756 20.3707 11.8817 20.3702C12.2177 20.3696 12.7867 21.1068 13.1337 21.9923C13.5532 23.0627 13.9649 23.7097 14.6305 24.3448L15.2343 24.9209L15.1407 25.7467C15.0893 26.2009 14.9649 27.6268 14.8642 28.9153C14.7635 30.2038 14.6525 31.621 14.6175 32.0646C14.5258 33.2271 14.3653 34.0876 14.0979 34.8516C13.6862 36.0278 13.4087 37.9289 13.4089 39.5731C13.4091 41.8369 13.6202 43.0506 14.3858 45.1917C15.9332 49.5193 19.6137 53.2567 22.9627 53.9014C23.4099 53.9876 26.5319 54.016 32.8902 53.9916L42.1654 53.9563L43.0871 53.584C46.2967 52.288 49.4204 48.6024 50.6817 44.6235C51.3266 42.5889 51.3775 42.2318 51.3796 39.7267C51.3818 37.1794 51.2452 36.1967 50.6811 34.6979C50.5285 34.2923 50.403 33.7412 50.4023 33.4733C50.4016 33.2055 50.3269 32.2863 50.2364 31.4308C50.0389 29.5665 49.8625 27.5279 49.7628 25.9579L49.6897 24.8057L50.2164 24.3704C50.8217 23.8702 51.1801 23.3031 51.7354 21.9665C52.1745 20.9097 52.6117 20.3698 53.0286 20.3698C53.3506 20.3698 53.8104 20.6676 54.5827 21.3768C55.5009 22.2197 56.0896 22.373 56.9347 21.9894C57.771 21.6096 58.0242 20.7287 57.5589 19.8167C57.2045 19.1219 52.5329 14.475 50.1252 12.422C47.7811 10.4233 47.1734 10 46.649 10C46.0804 10 45.0472 10.8245 42.9143 12.9808L41.0132 14.9027L32.3717 14.8421L23.7302 14.7816L22.817 13.8022C21.8278 12.7415 20.7198 11.7131 19.4989 10.7227C18.6002 9.99355 18.0833 9.8584 17.4811 10.1948ZM21.7546 25.0764C21.2861 25.3735 21.0905 25.9626 21.1699 26.8382C21.2448 27.6637 21.5366 28.1962 22.0635 28.4692C22.4064 28.6468 22.7106 28.6712 24.2175 28.6421C25.9616 28.6082 25.9741 28.606 26.2914 28.2887C26.5871 27.993 26.6136 27.8898 26.65 26.8958C26.6862 25.9059 26.6683 25.798 26.4196 25.5103C26.108 25.1499 25.4703 25.0245 23.3846 24.9138C22.2472 24.8534 22.0799 24.87 21.7546 25.0764ZM40.149 24.9723C39.0094 25.0464 38.7447 25.1328 38.3618 25.5563C38.0445 25.907 38.0314 27.5418 38.3421 28.016C38.7878 28.6962 39.1206 28.7925 40.8979 28.7563C42.3736 28.7259 42.5431 28.7004 42.8872 28.4548C43.4672 28.0412 43.653 27.587 43.6492 26.5916C43.6426 24.8876 43.3734 24.7631 40.149 24.9723ZM31.3729 29.7052C28.8863 30.1248 26.5796 31.6475 24.7626 34.0684C23.7812 35.3762 22.7537 37.4104 22.1894 39.1635C21.1714 42.3253 19.7568 47.3606 19.7558 47.8254C19.7535 48.9094 21.4348 50.4392 23.0655 50.8368C23.7625 51.0066 24.7951 51.0234 32.775 50.9937L41.7045 50.9606L42.3501 50.6918C43.5186 50.2053 44.8681 48.9445 45.0666 48.1536C45.1742 47.7247 44.8609 46.533 42.8361 39.669C42.6117 38.9086 42.1281 37.6642 41.7614 36.9038C40.6764 34.6539 39.657 33.2876 38.0762 31.9644C35.8762 30.1229 33.5479 29.3382 31.3729 29.7052ZM29.5216 32.8429C29.1238 33.1692 28.8575 33.928 28.8575 34.7348C28.8575 35.523 29.0786 35.9542 29.6125 36.2076C30.0606 36.4203 30.3976 36.4104 31.7648 36.1444C32.4503 36.0111 32.6661 36.0182 33.6168 36.2051C34.9094 36.4593 35.421 36.3559 35.7792 35.7685C36.2099 35.0621 36.0155 33.5015 35.4231 32.909L35.0971 32.583L32.467 32.5836C29.912 32.5842 29.8279 32.5916 29.5216 32.8429Z" fill="#AFABA2"/>
</svg>
