<svg width="14" height="14" viewBox="0 0 14 14" fill="none" xmlns="http://www.w3.org/2000/svg">
<path fill-rule="evenodd" clip-rule="evenodd" d="M12.19 2.5075C12.04 2.065 11.62 1.75 11.125 1.75H9.25V0.25H4.75V1.75H2.875C2.38 1.75 1.9675 2.065 1.81 2.5075L0.25 7V13C0.25 13.4125 0.5875 13.75 1 13.75H1.75C2.1625 13.75 2.5 13.4125 2.5 13V12.25H11.5V13C11.5 13.4125 11.8375 13.75 12.25 13.75H13C13.4125 13.75 13.75 13.4125 13.75 13V7L12.19 2.5075ZM3.1375 3.25H10.855L11.635 5.5H2.3575L3.1375 3.25ZM11.5 10.75H12.25V7.255L12.1675 7H1.84L1.75 7.255V10.75H2.5H11.5ZM3.625 10C4.24632 10 4.75 9.49632 4.75 8.875C4.75 8.25368 4.24632 7.75 3.625 7.75C3.00368 7.75 2.5 8.25368 2.5 8.875C2.5 9.49632 3.00368 10 3.625 10ZM11.5 8.875C11.5 9.49632 10.9963 10 10.375 10C9.75368 10 9.25 9.49632 9.25 8.875C9.25 8.25368 9.75368 7.75 10.375 7.75C10.9963 7.75 11.5 8.25368 11.5 8.875Z" fill="#F8BD48"/>
</svg>
