<svg width="64" height="64" viewBox="0 0 64 64" fill="none" xmlns="http://www.w3.org/2000/svg">
<path fill-rule="evenodd" clip-rule="evenodd" d="M15.9112 11.264C14.4411 11.9663 12.5097 12.8883 11.6192 13.3127C10.7287 13.7372 10 14.1136 10 14.1493C10 14.2337 10.3803 15.2994 10.9744 16.8802C11.2358 17.5758 11.8806 19.3714 12.4071 20.8704C13.1895 23.0971 13.384 23.5601 13.4699 23.3999C13.5613 23.2297 14.6533 20.8595 16.4606 16.908C17.4511 14.7423 18.2563 13.1366 18.3518 13.1366C18.4045 13.1366 18.6463 13.277 18.8891 13.4486L19.3306 13.7606L18.976 14.8749C18.781 15.4879 18.2349 17.1118 17.7626 18.4837C17.2902 19.8555 16.7405 21.5016 16.5411 22.1415C16.0295 23.7831 15.1404 27.1266 15.139 27.4144C15.1379 27.6336 13.5759 29.5323 11.8131 31.4572L11.3133 32.0032L11.3834 33.8766C11.422 34.9071 11.5195 36.8885 11.6 38.2797C11.6806 39.6709 11.7467 40.8874 11.747 40.983C11.7474 41.0786 12.1548 41.6933 12.6523 42.3489C13.1498 43.0046 14.1061 44.2695 14.7773 45.1599C15.4485 46.0503 16.1931 47.0161 16.432 47.3063L16.8665 47.8339L16.8723 46.2945C16.8827 43.5505 17.5119 41.1847 18.8378 38.904C20.8585 35.428 24.7362 32.6311 28.6075 31.8573C31.7785 31.2234 35.4701 31.8281 38.3019 33.4452C42.1871 35.664 44.6022 38.9228 45.6338 43.3387C45.7818 43.9721 45.8233 44.5713 45.8249 46.0955C45.8262 47.1666 45.8561 48.0431 45.8916 48.0432C45.927 48.0434 46.2203 47.759 46.5433 47.4111C46.8662 47.0634 48.2092 45.6831 49.5275 44.3441L51.9244 41.9093L52.1373 40.9423C52.2544 40.4105 52.7213 38.5082 53.1751 36.715C53.6288 34.9218 54 33.3514 54 33.2254C54 33.0798 53.3436 32.1926 52.2011 30.7941C50.2458 28.4005 50.3367 28.5664 49.8167 26.4417C49.6669 25.8295 49.5099 25.2893 49.4678 25.2412C49.4257 25.193 49.2746 25.3356 49.132 25.5579C48.8826 25.9467 48.4591 26.1887 48.0278 26.1887C47.6307 26.1887 47.3014 25.7035 46.4828 23.9122C46.025 22.9105 45.2447 21.2031 44.7488 20.118C44.2528 19.0328 43.4454 17.2863 42.9548 16.237C42.464 15.1877 42.0768 14.3165 42.0943 14.301C42.3625 14.0653 43.4683 13.4567 43.524 13.5142C43.6041 13.5969 44.6973 16.0209 45.9319 18.8532C46.8988 21.0715 47.9035 23.3012 48.1588 23.7952L48.3598 24.1841L48.794 23.4917C49.0328 23.1108 50.2842 21.2585 51.5748 19.3755C52.8653 17.4924 53.9424 15.8718 53.9683 15.7741C54.0366 15.5173 53.5358 15.0946 52.4868 14.5234C50.9869 13.7069 44.7234 10.3801 44.3157 10.1835C44.1064 10.0826 43.7863 10 43.6044 10C43.1804 10 42.3034 10.4846 41.4754 11.1764L40.8247 11.7201H31.24H21.6553L21.3548 11.4113C21.1895 11.2415 20.7126 10.8745 20.2951 10.5956C19.0379 9.75606 19.0818 9.74938 15.9112 11.264ZM27.8619 14.7073C27.5494 15.015 27.4821 15.3107 27.5518 16.0681C27.6262 16.8761 27.4268 18.1731 27.1248 18.8451C26.981 19.1652 26.6164 19.6759 26.2947 20.0079C25.3294 21.0039 24.0362 21.4254 22.534 21.2335C22.1144 21.1798 21.6186 21.1346 21.4323 21.1329C20.9729 21.1286 20.5888 21.5096 20.5888 21.9695C20.5888 22.578 20.9909 22.783 22.5067 22.947C24.558 23.1691 26.2021 22.5936 27.5722 21.1739C28.8386 19.8619 29.2191 18.8596 29.2988 16.625L29.3532 15.105L29.074 14.7785C28.7167 14.3604 28.2427 14.3326 27.8619 14.7073ZM39.7848 21.3894C38.4466 21.7085 37.0879 22.6236 36.5216 23.5871C36.1458 24.2268 36.1522 24.6181 36.5433 24.9042C37.0579 25.2807 37.3976 25.1701 38.1676 24.3753C38.9623 23.5551 39.7953 23.1105 40.8512 22.9432C41.9234 22.7732 41.9616 22.7584 42.1243 22.4486C42.3449 22.0287 42.3188 21.7655 42.028 21.4793C41.8074 21.2621 41.688 21.2319 41.0771 21.2393C40.6929 21.244 40.1113 21.3115 39.7848 21.3894ZM19.1715 26.665C18.9232 27.1867 18.8926 27.3679 18.8938 28.3135C18.8949 29.2725 18.9225 29.4287 19.1779 29.9182C19.5391 30.6106 19.7828 30.9158 20.2971 31.3199C21.2375 32.0587 22.6587 32.2763 23.7992 31.8563C24.7604 31.5025 26.0374 30.2038 26.0374 29.5805C26.0374 28.9078 25.0617 28.5878 24.4798 29.0697C23.6113 29.789 22.2886 29.5871 21.5358 28.6205C21.3498 28.3817 21.2196 28.1649 21.2462 28.1386C21.2729 28.1123 21.4774 28.2353 21.7006 28.4118C22.2173 28.8204 22.7104 28.8124 22.9494 28.3915C23.0944 28.1359 23.0908 28.101 22.9011 27.9215C22.7885 27.8149 21.9659 27.3567 21.0734 26.9033L19.4506 26.0788L19.1715 26.665ZM42.8387 26.2694C42.6484 26.426 42.6399 26.4762 42.757 26.7465C42.9742 27.2479 42.9302 28.1064 42.6653 28.5371C42.0438 29.5473 40.9289 29.7725 39.9064 29.0943C39.2561 28.663 39.4922 28.2127 40.1781 28.5764C40.5257 28.7605 40.5357 28.7602 40.7388 28.5603C41.1163 28.1887 41.19 27.3017 40.8435 27.3017C40.7846 27.3017 39.8129 27.7566 38.6841 28.3126C36.399 29.4382 36.5181 29.2982 37.0901 30.1853C37.8576 31.3754 38.944 31.9794 40.3331 31.9882C40.9912 31.9925 41.2113 31.9461 41.7723 31.6856C43.3634 30.9465 44.2593 29.3216 43.9334 27.7669C43.782 27.0453 43.3466 26.086 43.1724 26.0909C43.1059 26.0928 42.9557 26.173 42.8387 26.2694ZM28.9159 33.1607C25.4826 33.9105 22.5413 35.9153 20.5442 38.867C18.8724 41.3377 18.2405 43.5643 18.3589 46.5672C18.4546 48.9942 18.945 50.8951 19.6574 51.6004C20.149 52.0869 20.6551 52.2186 21.5172 52.0838C24.1636 51.6702 26.4603 50.3084 27.7341 48.3976C29.0221 46.4655 29.9598 43.4508 30.1177 40.7338L30.181 39.6456L28.1863 39.6411C25.4494 39.6352 25.0793 39.5434 24.518 38.7316C23.9068 37.8476 24.1502 37.3076 25.5748 36.3877C28.1825 34.7039 31.5269 34.2465 34.5187 35.1647C36.1168 35.6551 38.1118 36.8462 38.4309 37.5003C38.7344 38.1223 38.352 38.9851 37.6179 39.3349C37.2144 39.5271 36.9935 39.5444 34.9456 39.5444C33.0059 39.5444 32.705 39.5654 32.6508 39.7043C32.6166 39.7922 32.6685 40.5776 32.7664 41.4496C33.1739 45.0822 34.34 47.9153 36.1574 49.6883C37.5132 51.0109 38.9292 51.8363 40.7241 52.3504C41.8042 52.6597 42.204 52.6599 42.7391 52.3512C43.2639 52.0485 43.6113 51.4498 43.9711 50.228C44.9202 47.0046 44.6159 43.2256 43.18 40.4044C42.3251 38.7249 40.6519 36.7273 39.1448 35.5871C37.7086 34.5005 36.177 33.7667 34.3683 33.2984C32.9998 32.944 30.2283 32.8741 28.9159 33.1607ZM34.2943 36.9278C33.9913 37.0956 33.5035 37.2577 33.1634 37.3036L32.5654 37.3843L33.2497 38.0554C33.626 38.4244 34.0539 38.756 34.2006 38.7923C34.8555 38.954 35.2267 38.6015 35.4059 37.6479C35.5123 37.081 35.5093 37.0675 35.2221 36.8413C35.0614 36.7147 34.9068 36.6161 34.8785 36.622C34.8502 36.6279 34.5874 36.7655 34.2943 36.9278ZM27.4767 36.8631C27.2798 37.0966 27.3013 37.9075 27.5149 38.3093C27.904 39.0409 28.6003 38.9294 29.6157 37.9731L30.3037 37.3252L29.8411 37.3195C29.5835 37.3162 29.1053 37.1979 28.7617 37.0523C27.9244 36.6975 27.6504 36.6572 27.4767 36.8631ZM31.0791 46.209C29.9829 49.5691 27.7834 52.0893 24.9799 53.1974C24.6528 53.3267 24.3998 53.4469 24.4177 53.4645C24.4782 53.524 27.1055 53.8068 28.5561 53.9099C30.9874 54.0828 36.2159 53.9949 38.1669 53.7483L38.6282 53.6899L38.0641 53.4637C36.4684 52.8234 34.3976 51.1789 33.4688 49.8141C32.6645 48.6325 32.0438 47.2495 31.4943 45.4158C31.4323 45.2086 31.3612 45.3445 31.0791 46.209ZM22.8643 45.6513C22.5582 45.972 22.4839 46.4966 22.6794 46.957C22.859 47.3802 23.2268 47.5306 23.6344 47.3479C23.8975 47.2299 24.2168 46.638 24.1431 46.405C24.1201 46.3324 24.0742 46.1508 24.0411 46.0017C23.9077 45.3998 23.2821 45.2135 22.8643 45.6513ZM38.9117 45.4974C38.5597 45.7172 38.5278 46.8854 38.8636 47.2594C39.0478 47.4646 39.7073 47.5001 39.8953 47.315C40.0601 47.1528 40.0601 45.6964 39.8953 45.5343C39.7562 45.3974 39.1104 45.3732 38.9117 45.4974Z" fill="#AFABA2"/>
</svg>
