<svg width="16" height="16" viewBox="0 0 16 16" fill="none" xmlns="http://www.w3.org/2000/svg">
<path fill-rule="evenodd" clip-rule="evenodd" d="M5.6 14.4011C3.3944 14.4011 1.6 12.6071 1.6 10.4019C1.6 8.19676 3.3944 6.40272 5.6 6.40272C7.8056 6.40272 9.6 8.19676 9.6 10.4019C9.6 12.6071 7.8056 14.4011 5.6 14.4011ZM9.6 0V1.59968H13.2688L8.9488 5.9204C7.98355 5.19407 6.80808 4.80162 5.6 4.80226C4.49246 4.80226 3.40979 5.13055 2.48889 5.74572C1.56799 6.3609 0.850228 7.23529 0.426354 8.25831C0.00247941 9.28132 -0.108466 10.4071 0.107546 11.4931C0.323559 12.5792 0.856828 13.5768 1.63992 14.3598C2.42302 15.1429 3.42076 15.6762 4.50701 15.8923C5.59325 16.1084 6.71919 15.9977 7.74247 15.574C8.76575 15.1504 9.64041 14.4329 10.2558 13.5122C10.8713 12.5916 11.1998 11.5092 11.2 10.4019C11.1998 9.19384 10.807 8.01851 10.0808 7.05298L14.4 2.73461V6.39872H16V0H9.6Z" fill="#15130E"/>
</svg>
