<svg width="242" height="40" viewBox="0 0 242 40" fill="none" xmlns="http://www.w3.org/2000/svg">
<g filter="url(#filter0_dd_54670_27083)">
<path d="M20.1845 29.7697L18.0162 26.0141L21.1983 20.5177L23.2204 24.0203L35.1572 24.0139L31.7701 29.8216L20.1845 29.7697Z" fill="#FFAD64"/>
<path d="M37.2887 20.2847L35.1205 24.0403L28.7694 24.0328L30.7917 20.5303L24.8177 10.1959L31.5409 10.2254L37.2887 20.2847Z" fill="#ADD4D3"/>
<path d="M20.5187 10.1759H24.8553L28.0243 15.6799L23.9799 15.6797L18.0171 26.0205L14.681 20.1834L20.5187 10.1759Z" fill="#FB8351"/>
<path fill-rule="evenodd" clip-rule="evenodd" d="M25.384 9.30634L25.371 9.28391H20.0064L13.651 20.1789L18.0136 27.8122L18.019 27.8029L19.6682 30.6595L32.2812 30.7159L36.7106 23.1211H36.6811L38.3174 20.287L32.0598 9.33563L25.384 9.30634ZM29.5338 16.5719H29.5673L26.4138 11.0949L31.0218 11.1152L36.26 20.2824L34.6204 23.1223L30.3238 23.1245L31.8218 20.5299L29.5338 16.5719ZM24.2915 11.0679L26.4418 14.7878L23.4646 14.7877L18.3675 23.627L18.0199 24.2276L15.7111 20.1879L21.0311 11.0679H24.2915ZM22.2241 20.5103L24.4952 16.5718L27.4732 16.5719L29.7614 20.5305L28.263 23.1257L23.7354 23.1281L22.2241 20.5103ZM19.0484 26.0177L19.9124 24.5194L21.1972 22.3L22.7056 24.9127L27.2326 24.9103L27.2252 24.9229L33.59 24.9305L31.259 28.9273L20.7009 28.8801L19.0484 26.0177Z" fill="#333237"/>
<path d="M70.8099 15.8125C71.4209 15.8125 71.9172 15.3161 71.9172 14.6925C71.9172 14.0688 71.4209 13.5852 70.8099 13.5852C70.1863 13.5852 69.6899 14.0688 69.6899 14.6925C69.6899 15.3161 70.1863 15.8125 70.8099 15.8125ZM69.8172 23.1688H71.7899V16.8052H69.8172V23.1688Z" fill="#FB8351"/>
<path d="M72.9382 26.2234H74.8728V22.5325C75.2419 23.0161 76.0819 23.347 76.9601 23.347C78.8564 23.347 80.002 21.8961 79.9513 19.8852C79.9 17.8361 78.7164 16.6015 76.9474 16.6015C76.0437 16.6015 75.191 16.9961 74.8346 17.5815L74.7328 16.8052H72.9382V26.2234ZM74.911 19.987C74.911 19.0325 75.5474 18.3961 76.4637 18.3961C77.3928 18.3961 77.9783 19.0452 77.9783 19.987C77.9783 20.9288 77.3928 21.5779 76.4637 21.5779C75.5474 21.5779 74.911 20.9415 74.911 19.987Z" fill="#FB8351"/>
<path d="M80.16 21.1579C80.2107 22.4434 81.2294 23.3343 82.8327 23.3343C84.3727 23.3343 85.442 22.5197 85.442 21.2088C85.442 20.267 84.882 19.6434 83.838 19.3888L82.7054 19.1088C82.298 19.007 82.0434 18.9052 82.0434 18.5743C82.0434 18.2434 82.3107 18.027 82.7054 18.027C83.1507 18.027 83.4434 18.3197 83.4307 18.7525H85.2C85.1494 17.4288 84.1434 16.6015 82.7434 16.6015C81.3307 16.6015 80.2747 17.4415 80.2747 18.7143C80.2747 19.567 80.7454 20.267 82.0054 20.5979L83.1254 20.8907C83.456 20.9797 83.596 21.1325 83.596 21.3488C83.596 21.667 83.3034 21.8707 82.8074 21.8707C82.2347 21.8707 81.9294 21.6034 81.9294 21.1579H80.16Z" fill="#FB8351"/>
<path d="M88.442 23.3343C89.218 23.3343 89.9946 22.9779 90.3893 22.4561L90.5166 23.1688H92.362V16.8052H90.402V20.1143C90.402 21.0688 90.122 21.5907 89.218 21.5907C88.518 21.5907 88.06 21.2725 88.06 20.0888V16.8052H86.1V20.8015C86.1 22.3161 86.94 23.3343 88.442 23.3343Z" fill="#FB8351"/>
<path d="M95.47 23.1688V19.6943C95.47 18.6252 96.0426 18.3197 96.6026 18.3197C97.2266 18.3197 97.634 18.7015 97.634 19.4907V23.1688H99.568V19.6943C99.568 18.6125 100.128 18.307 100.688 18.307C101.312 18.307 101.732 18.6888 101.732 19.4907V23.1688H103.641V19.007C103.641 17.5561 102.877 16.5888 101.235 16.5888C100.319 16.5888 99.568 17.0343 99.2373 17.7215C98.8553 17.0343 98.194 16.5888 97.1373 16.5888C96.4373 16.5888 95.788 16.907 95.4066 17.4161L95.33 16.8052H93.4973V23.1688H95.47Z" fill="#FB8351"/>
<path d="M43.9287 13.7516H41.8414V23.1698H47.6196V21.3243H43.9287V13.7516Z" fill="#333237"/>
<path d="M47.819 19.9753C47.819 21.9861 49.1681 23.3225 51.2044 23.3225C53.2281 23.3225 54.5772 21.9861 54.5772 19.9753C54.5772 17.9643 53.2281 16.6152 51.2044 16.6152C49.1681 16.6152 47.819 17.9643 47.819 19.9753ZM49.7917 19.9625C49.7917 19.0079 50.3517 18.3716 51.2044 18.3716C52.0444 18.3716 52.6044 19.0079 52.6044 19.9625C52.6044 20.9298 52.0444 21.5661 51.2044 21.5661C50.3517 21.5661 49.7917 20.9298 49.7917 19.9625Z" fill="#333237"/>
<path d="M54.8925 19.8734C54.8925 21.7953 56.1398 23.0934 57.9089 23.0934C58.7616 23.0934 59.4998 22.788 59.8689 22.2916V23.1698C59.8689 24.048 59.3216 24.6334 58.3543 24.6334C57.4889 24.6334 56.8907 24.2261 56.8525 23.5007H54.8671C55.0452 25.2443 56.3943 26.4153 58.2398 26.4153C60.4161 26.4153 61.7907 25.0025 61.7907 22.7625V16.8061H60.0216L59.9198 17.4553C59.5634 16.9334 58.8125 16.5898 57.9471 16.5898C56.1652 16.5898 54.8925 17.9261 54.8925 19.8734ZM56.8779 19.8225C56.8779 18.9061 57.4889 18.2953 58.2652 18.2953C59.1689 18.2953 59.8307 18.8934 59.8307 19.8225C59.8307 20.7516 59.1816 21.3879 58.2779 21.3879C57.5016 21.3879 56.8779 20.7516 56.8779 19.8225Z" fill="#333237"/>
<path d="M62.3619 19.9753C62.3619 21.9861 63.711 23.3225 65.7474 23.3225C67.771 23.3225 69.1201 21.9861 69.1201 19.9753C69.1201 17.9643 67.771 16.6152 65.7474 16.6152C63.711 16.6152 62.3619 17.9643 62.3619 19.9753ZM64.3347 19.9625C64.3347 19.0079 64.8947 18.3716 65.7474 18.3716C66.5874 18.3716 67.1474 19.0079 67.1474 19.9625C67.1474 20.9298 66.5874 21.5661 65.7474 21.5661C64.8947 21.5661 64.3347 20.9298 64.3347 19.9625Z" fill="#333237"/>
</g>
<g clip-path="url(#clip0_54670_27083)" filter="url(#filter1_dd_54670_27083)">
<path fill-rule="evenodd" clip-rule="evenodd" d="M131.979 15.0111C130.993 14.3518 129.833 13.9999 128.646 13.9999V7.99994C131.019 7.99994 133.339 8.70373 135.313 10.0223C137.286 11.3409 138.824 13.215 139.733 15.4077C140.641 17.6004 140.878 20.0133 140.415 22.341C139.952 24.6688 138.81 26.807 137.131 28.4852C135.453 30.1635 133.315 31.3063 130.987 31.7694C128.659 32.2324 126.246 31.9947 124.054 31.0865C121.861 30.1782 119.987 28.6402 118.668 26.6668C117.35 24.6934 116.646 22.3733 116.646 19.9999H122.646C122.646 21.1866 122.998 22.3467 123.657 23.3334C124.316 24.3201 125.254 25.0891 126.35 25.5432C127.446 25.9974 128.653 26.1162 129.817 25.8846C130.98 25.6531 132.049 25.0817 132.889 24.2426C133.728 23.4034 134.299 22.3344 134.531 21.1705C134.762 20.0066 134.643 18.8002 134.189 17.7039C133.735 16.6075 132.966 15.6704 131.979 15.0111Z" fill="#007DFC"/>
<path fill-rule="evenodd" clip-rule="evenodd" d="M122.646 7.99994C122.646 8.78787 122.491 9.56809 122.189 10.296C121.888 11.024 121.446 11.6854 120.889 12.2426C120.331 12.7997 119.67 13.2417 118.942 13.5432C118.214 13.8447 117.434 13.9999 116.646 13.9999L116.646 19.9999C118.222 19.9999 119.782 19.6896 121.238 19.0865C122.694 18.4834 124.017 17.5995 125.131 16.4852C126.246 15.3709 127.129 14.0481 127.733 12.5921C128.336 11.1362 128.646 9.5758 128.646 7.99994L122.646 7.99994Z" fill="#007DFC"/>
</g>
<g clip-path="url(#clip1_54670_27083)" filter="url(#filter2_dd_54670_27083)">
<path d="M188.388 10.95C188.388 10.978 188.388 11.013 188.381 11.034C188.345 11.3068 188.345 11.5797 188.366 11.8595C188.381 11.9295 188.395 11.9994 188.452 12.0554C188.545 12.1603 188.688 12.1394 188.746 12.0134C188.774 11.9505 188.774 11.8875 188.76 11.8245C188.688 11.5587 188.674 11.2788 188.667 11.006C188.667 10.992 188.667 10.971 188.667 10.95C188.746 10.943 188.817 10.936 188.882 10.936C188.932 10.9291 188.975 10.9221 189.01 10.9011C189.118 10.8451 189.118 10.7262 189.003 10.6702C188.96 10.6492 188.903 10.6422 188.853 10.6422C188.674 10.6492 188.495 10.6492 188.316 10.6492C188.252 10.6492 188.188 10.6562 188.123 10.6632C188.087 10.6702 188.044 10.6702 188.016 10.6912C187.966 10.7122 187.937 10.7472 187.937 10.7961C187.944 10.8451 187.966 10.8731 188.016 10.8941C188.044 10.9151 188.08 10.9221 188.116 10.9221C188.202 10.9291 188.295 10.943 188.388 10.95ZM190.356 11.2719C190.356 11.2789 190.363 11.2858 190.363 11.2858C190.391 11.4747 190.42 11.6566 190.441 11.8385C190.449 11.9015 190.456 11.9575 190.499 12.0064C190.592 12.1254 190.735 12.1114 190.799 11.9854C190.828 11.9225 190.835 11.8595 190.821 11.7896C190.778 11.5797 190.756 11.3698 190.713 11.1669C190.685 11.041 190.649 10.9221 190.613 10.8101C190.592 10.7402 190.542 10.6912 190.456 10.6842C190.37 10.6702 190.305 10.7122 190.27 10.7751C190.227 10.8311 190.191 10.8871 190.162 10.95C190.112 11.062 190.069 11.1739 190.012 11.2789C190.005 11.3068 189.998 11.3278 189.984 11.3488C189.976 11.3348 189.969 11.3278 189.969 11.3278C189.876 11.1529 189.79 10.978 189.697 10.8101C189.683 10.7961 189.676 10.7821 189.669 10.7681C189.626 10.7052 189.576 10.6702 189.497 10.6702C189.425 10.6772 189.368 10.7192 189.332 10.7821C189.318 10.8101 189.318 10.8311 189.311 10.8591C189.282 11.083 189.246 11.3068 189.218 11.5307C189.204 11.6566 189.196 11.7826 189.196 11.9085C189.189 11.9365 189.196 11.9714 189.211 11.9994C189.225 12.0554 189.268 12.0904 189.325 12.0974C189.397 12.1044 189.447 12.0834 189.468 12.0274C189.49 11.9854 189.497 11.9505 189.504 11.9155C189.533 11.7896 189.554 11.6706 189.576 11.5517C189.59 11.4817 189.597 11.4258 189.619 11.3488C189.633 11.3768 189.647 11.3978 189.662 11.4188C189.726 11.5027 189.79 11.5867 189.869 11.6566C189.948 11.7126 190.012 11.7056 190.077 11.6426C190.091 11.6286 190.098 11.6217 190.112 11.6077C190.177 11.5097 190.255 11.4118 190.32 11.3138C190.334 11.2998 190.341 11.2858 190.356 11.2719Z" fill="#3A3B7B"/>
<path d="M173.869 11.0875C173.819 11.2204 173.81 11.3162 173.833 11.3958C173.858 11.5041 173.924 11.5396 174.013 11.512C174.854 11.3088 176.697 11.8856 177.379 12.0463C177.54 12.0801 177.671 11.877 177.561 11.6949C177.401 11.5185 175.559 10.7635 174.856 10.7224C174.58 10.7072 174.088 10.6381 173.869 11.0875Z" fill="#3A3B7B"/>
<path d="M181.071 8.64348C181.161 8.69402 181.211 8.74224 181.236 8.79612C181.273 8.86678 181.253 8.91568 181.191 8.94063C180.636 9.20573 179.897 10.347 179.598 10.7407C179.526 10.8312 179.359 10.7786 179.334 10.6297C179.339 10.4613 179.994 9.22274 180.36 8.8854C180.504 8.75368 180.741 8.49525 181.071 8.64348Z" fill="#3A3B7B"/>
<path d="M176.647 8.08165C176.755 8.00235 176.867 7.97456 176.924 8.02609C177.762 8.72698 178.206 9.83688 178.482 10.853C178.492 10.8766 178.493 10.9106 178.484 10.9461C178.481 10.9763 178.458 11.0083 178.422 11.0331C178.384 11.0604 178.351 11.0688 178.335 11.0452C177.968 10.5567 175.87 8.6558 176.647 8.08165Z" fill="#3A3B7B"/>
<path d="M158.897 20.2332C159.098 20.0869 159.317 19.9652 159.548 19.8707C159.79 19.8031 160.047 19.8143 160.282 19.9027C160.517 19.991 160.716 20.1517 160.849 20.3604C160.968 20.5685 161.014 20.8088 160.981 21.0451C160.948 21.2814 160.838 21.5008 160.667 21.6704C160.534 21.8078 160.383 21.9276 160.218 22.0265C159.483 22.4908 158.741 22.9295 158 23.3938C157.848 23.5099 157.687 23.6142 157.519 23.7054C157.262 23.8304 156.969 23.8639 156.69 23.8001C156.411 23.7362 156.163 23.579 155.99 23.3556C155.861 23.1974 155.752 23.0245 155.665 22.8405C154.962 21.397 154.234 19.9597 153.558 18.4907C153.245 17.8548 152.992 17.1235 152.745 16.4176C152.638 16.2125 152.617 15.9748 152.686 15.7548C152.756 15.5349 152.911 15.3502 153.117 15.24C153.324 15.1298 153.567 15.1029 153.793 15.1649C154.02 15.2268 154.213 15.3728 154.332 15.5718C154.695 16.0445 155.017 16.5466 155.294 17.0726C155.997 18.3445 156.667 19.6163 157.343 20.85C157.382 20.9182 157.426 20.984 157.473 21.0472C157.982 20.8379 158.461 20.5642 158.897 20.2332Z" fill="#3A3B7B"/>
<path d="M166.16 19.7895C164.554 21.6273 161.861 21.1631 160.508 18.7974C159.546 17.1186 159.377 14.3459 161.471 12.5971C161.918 12.231 162.453 11.9816 163.025 11.8722C163.727 11.7738 164.443 11.8948 165.07 12.2181C165.698 12.5413 166.204 13.0501 166.518 13.6718C167.663 15.7068 167.5 18.3014 166.16 19.7895ZM165.51 15.5033C165.339 15.0032 164.997 14.5763 164.541 14.295C164.283 14.1152 163.969 14.0278 163.653 14.0474C163.337 14.0671 163.037 14.1928 162.804 14.4031C161.874 15.2108 161.679 17.125 162.355 18.2633C162.442 18.4489 162.568 18.6138 162.726 18.7466C162.885 18.8794 163.071 18.9767 163.271 19.0318C163.472 19.087 163.683 19.0985 163.889 19.0657C164.094 19.0329 164.29 18.9565 164.463 18.8419C164.967 18.4597 165.337 17.9335 165.521 17.3363C165.705 16.7391 165.694 16.1006 165.49 15.5097L165.51 15.5033Z" fill="#3A3B7B"/>
<path d="M172.716 16.3046C172.552 16.3392 172.382 16.3412 172.217 16.3106C172.051 16.28 171.894 16.2175 171.754 16.1266C171.631 16.0579 171.525 15.9636 171.444 15.8503C171.364 15.737 171.309 15.6077 171.286 15.4714C171.262 15.3352 171.27 15.1956 171.308 15.0625C171.346 14.9295 171.414 14.8064 171.507 14.702C171.668 14.4924 171.897 14.3423 172.157 14.276C172.835 14.0836 173.533 13.9662 174.238 13.9262C174.393 13.9086 174.55 13.9214 174.7 13.9639C174.85 14.0065 174.989 14.0778 175.11 14.1738C175.231 14.2697 175.332 14.3884 175.405 14.5228C175.479 14.6572 175.524 14.8046 175.539 14.9564C175.742 15.7021 175.765 16.4839 175.604 17.2394C175.019 19.6814 173.002 20.5208 170.739 19.7386C170.104 19.5295 169.547 19.1398 169.139 18.6194C168.595 17.9927 168.21 17.2499 168.014 16.4509C167.855 15.7393 167.872 15.001 168.065 14.2974C168.257 13.5938 168.619 12.9454 169.12 12.4064C169.595 11.8204 170.212 11.3593 170.915 11.0645C171.359 10.8252 171.879 10.7571 172.372 10.8738C172.483 10.904 172.585 10.963 172.666 11.0445C172.746 11.1261 172.803 11.2273 172.83 11.3376C172.858 11.4479 172.854 11.5633 172.82 11.6718C172.786 11.7803 172.724 11.8781 172.638 11.9548C172.476 12.0986 172.299 12.2264 172.111 12.3364C171.533 12.6964 171.03 13.1604 170.628 13.7036C170.365 14.0552 170.184 14.4589 170.098 14.8862C170.011 15.3136 170.021 15.7543 170.128 16.1774C170.275 16.7543 170.602 17.2721 171.064 17.6591C172.495 18.931 174.355 17.7036 174.03 15.9676C173.555 16.082 173.139 16.2029 172.716 16.3046Z" fill="#3A3B7B"/>
<path d="M181.458 19.8912C179.344 21.1631 176.938 19.8912 176.411 17.2204C176.027 15.3126 176.755 12.6417 179.305 11.6242C179.848 11.4124 180.436 11.338 181.016 11.408C181.712 11.5326 182.351 11.8679 182.842 12.3665C183.334 12.865 183.652 13.5018 183.754 14.187C184.183 16.4572 183.207 18.8801 181.458 19.8912ZM182.193 15.6114C182.192 15.0832 182.001 14.572 181.653 14.1679C181.467 13.918 181.198 13.7389 180.892 13.6612C180.586 13.5835 180.262 13.612 179.975 13.7418C178.83 14.2251 178.024 15.9803 178.316 17.2713C178.339 17.4738 178.406 17.6692 178.514 17.8437C178.621 18.0182 178.767 18.1676 178.94 18.2815C179.112 18.3953 179.309 18.4709 179.514 18.5029C179.72 18.5349 179.931 18.5226 180.131 18.4668C180.736 18.2601 181.26 17.8739 181.63 17.362C181.999 16.8501 182.196 16.2381 182.193 15.6114Z" fill="#3A3B7B"/>
<path d="M185.891 20.4254C185.859 20.6582 185.734 20.869 185.543 21.0115C185.353 21.154 185.112 21.2166 184.874 21.1854C184.635 21.1542 184.42 21.0318 184.274 20.8451C184.128 20.6585 184.064 20.4229 184.096 20.1901C184.128 19.9574 184.253 19.7466 184.444 19.604C184.635 19.4615 184.876 19.399 185.114 19.4302C185.352 19.4614 185.568 19.5838 185.714 19.7704C185.859 19.9571 185.923 20.1927 185.891 20.4254ZM185.326 11.8467C185.449 11.662 185.631 11.5213 185.843 11.4457C186.055 11.3701 186.287 11.3635 186.503 11.427C186.723 11.4808 186.917 11.6068 187.053 11.7839C187.189 11.9611 187.259 12.1786 187.251 12.4C187.222 12.7552 187.168 13.1079 187.088 13.4556C186.874 14.6321 186.665 15.8086 186.438 16.9723C186.334 17.4366 186.197 17.8817 186.047 18.3523C185.995 18.4994 185.909 18.6323 185.794 18.7402C185.723 18.8214 185.632 18.8836 185.529 18.9212C185.427 18.9588 185.316 18.9706 185.208 18.9553C185.1 18.9401 184.997 18.8984 184.91 18.8342C184.822 18.7699 184.753 18.6851 184.708 18.5876C184.63 18.4127 184.588 18.2248 184.584 18.0343C184.584 17.2458 184.584 16.4509 184.636 15.6559C184.725 14.5215 184.898 13.395 185.156 12.2855C185.187 12.1369 185.244 11.9947 185.326 11.8658V11.8467Z" fill="#3A3B7B"/>
<path fill-rule="evenodd" clip-rule="evenodd" d="M156.149 25.5357C156.073 25.7033 156.052 25.8901 156.089 26.07C156.114 26.307 156.169 26.5402 156.252 26.7642C156.357 27.0384 156.473 27.3096 156.617 27.6439C156.65 27.7208 156.685 27.8011 156.721 27.8856C156.915 28.3384 157.158 28.9171 157.482 29.7547C157.574 29.9926 157.656 30.2325 157.738 30.474C157.771 30.5716 157.804 30.6695 157.838 30.7677C157.961 31.1165 158.171 31.4299 158.449 31.6783C158.568 31.8149 158.725 31.9144 158.901 31.9641C159.08 32.0148 159.271 32.0116 159.448 31.9549C159.626 31.8981 159.782 31.7904 159.896 31.6458C160.007 31.5041 160.074 31.3332 160.087 31.1548C160.159 30.8071 160.135 30.4466 160.015 30.1114C159.825 29.5549 159.609 28.9975 159.36 28.4524L159.359 28.45C158.949 27.5971 158.532 26.7502 158.095 25.9028L158.092 25.8969C157.964 25.6762 157.798 25.4788 157.601 25.3138C157.473 25.1664 157.297 25.0671 157.102 25.0328C156.903 24.9978 156.698 25.0331 156.524 25.1323C156.358 25.2246 156.227 25.3658 156.149 25.5357Z" fill="#3A3B7B"/>
<path fill-rule="evenodd" clip-rule="evenodd" d="M162.413 23.4355C161.77 23.2727 161.098 23.249 160.445 23.3661C159.939 23.4148 159.441 23.5289 159.096 23.7549C158.92 23.8699 158.778 24.0177 158.699 24.2054C158.619 24.3942 158.609 24.6101 158.674 24.8506C158.793 25.2912 158.948 25.7196 159.102 26.1467L159.127 26.2158L159.127 26.2174C159.591 27.4579 160.058 28.6943 160.53 29.9265C160.585 30.1206 160.663 30.3079 160.762 30.4846L160.764 30.4879C160.895 30.7074 161.063 30.9037 161.26 31.0686C161.359 31.1592 161.482 31.222 161.614 31.25C161.748 31.2783 161.887 31.2701 162.017 31.2262C162.146 31.1824 162.261 31.1047 162.348 31.0015C162.434 30.9 162.491 30.7777 162.511 30.6475C162.597 30.294 162.569 29.9233 162.433 29.5854C162.39 29.4717 162.357 29.3554 162.322 29.2331C162.31 29.1923 162.298 29.1508 162.286 29.1085C163.366 28.6956 164.516 28.1404 164.92 26.8487C165.078 26.4024 165.091 25.9191 164.958 25.465C164.824 25.0105 164.549 24.6076 164.171 24.3119C163.658 23.8979 163.057 23.5987 162.413 23.4355ZM160.63 25.0198C160.652 25.0138 160.673 25.0083 160.695 25.0031C161.398 24.895 162.118 25.039 162.721 25.4086C162.987 25.5894 163.096 25.7903 163.115 25.9836C163.134 26.1827 163.06 26.3983 162.911 26.6057C162.63 26.9973 162.117 27.3108 161.654 27.3692C161.317 26.6089 160.974 25.8179 160.63 25.0198Z" fill="#3A3B7B"/>
<path d="M166.699 22.0439C167.465 21.6982 168.414 21.6384 169.156 21.8815C169.343 21.9348 169.505 22.0499 169.615 22.2073C169.724 22.3637 169.774 22.5521 169.757 22.7405C169.756 22.8628 169.725 22.9831 169.668 23.0917C169.609 23.2022 169.524 23.2972 169.419 23.3688C169.315 23.4403 169.195 23.4863 169.068 23.5027C168.942 23.5192 168.814 23.5056 168.694 23.4633L168.685 23.46L168.676 23.4556C168.615 23.4243 168.55 23.4006 168.482 23.3853L168.478 23.3843C167.956 23.2487 167.463 23.4734 167.284 23.7495C167.198 23.8811 167.187 24.0139 167.259 24.1348C167.335 24.2643 167.523 24.4095 167.903 24.513C168.007 24.5411 168.114 24.5681 168.223 24.5956C168.523 24.6717 168.835 24.7506 169.137 24.8601L169.138 24.8605C170.53 25.3785 171.049 26.4513 170.871 27.4602C170.696 28.458 169.844 29.3661 168.562 29.5803C168.096 29.6814 167.61 29.6617 167.154 29.5232C166.696 29.3843 166.284 29.1308 165.958 28.7878L165.949 28.7789C165.846 28.6497 165.777 28.4979 165.746 28.3368C165.718 28.1914 165.733 28.0412 165.789 27.9038C165.845 27.7672 165.94 27.649 166.062 27.5629C166.19 27.4653 166.346 27.4067 166.508 27.3945C166.67 27.3823 166.832 27.4167 166.974 27.4934C167.116 27.5605 167.248 27.6461 167.367 27.7479L167.369 27.7497C167.579 27.9373 167.833 27.9862 168.076 27.9409C168.323 27.895 168.555 27.7521 168.705 27.5626C168.853 27.3742 168.913 27.1505 168.842 26.9333C168.771 26.7145 168.557 26.4694 168.087 26.2644C167.964 26.2134 167.837 26.1723 167.704 26.1323C167.669 26.1215 167.632 26.1107 167.595 26.0998C167.497 26.0707 167.397 26.0408 167.298 26.0078C167.23 25.9851 167.162 25.9636 167.095 25.9423C166.913 25.8841 166.734 25.8274 166.563 25.7513C166.19 25.627 165.867 25.3884 165.643 25.0708C165.419 24.7519 165.306 24.3706 165.321 23.9838C165.322 23.0411 165.93 22.3916 166.699 22.0439Z" fill="#3A3B7B"/>
<path d="M176.407 21.9435C176.259 21.8726 176.094 21.8389 175.929 21.8455C175.764 21.8522 175.603 21.8989 175.461 21.9815C175.32 22.0636 175.202 22.1784 175.118 22.3159C175.04 22.4317 174.986 22.5612 174.959 22.6972C174.933 22.8331 174.933 22.9727 174.961 23.1083C174.989 23.2825 175.02 23.4519 175.05 23.619C175.1 23.8955 175.149 24.1657 175.181 24.4413L175.182 24.4483C175.255 24.8804 175.294 25.3175 175.297 25.7555L175.297 25.7617C175.323 26.2348 175.158 26.6986 174.838 27.0547L174.833 27.0611C174.729 27.1913 174.59 27.2906 174.432 27.3481C174.274 27.4055 174.102 27.4187 173.936 27.3862C173.771 27.3537 173.618 27.2768 173.494 27.164C173.371 27.0513 173.281 26.9068 173.237 26.7474C173.142 26.4116 173.087 26.0662 173.073 25.718L173.235 23.1946C173.238 23.1617 173.24 23.1278 173.243 23.0937C173.249 23.0171 173.256 22.939 173.258 22.8662C173.262 22.7591 173.259 22.6489 173.233 22.5446C173.207 22.438 173.158 22.3366 173.069 22.2503C172.982 22.1648 172.864 22.1017 172.716 22.0588C172.448 21.9829 172.221 21.9853 172.032 22.0637C171.843 22.1421 171.714 22.2876 171.622 22.4557C171.531 22.6224 171.473 22.8198 171.429 23.0174C171.396 23.1641 171.37 23.3181 171.345 23.4647C171.336 23.5152 171.327 23.5648 171.319 23.6129L171.319 23.6143C171.185 24.4181 171.145 25.2342 171.2 26.0468C171.21 26.486 171.304 26.9195 171.476 27.3251C171.671 27.8485 172.023 28.302 172.486 28.6258C172.951 28.9501 173.505 29.1289 174.076 29.1383C174.646 29.1478 175.206 28.9874 175.682 28.6787C176.156 28.3703 176.524 27.9284 176.737 27.4114C177.034 26.7527 177.173 26.0364 177.145 25.3171C177.127 24.7919 177.098 24.2627 177.069 23.7362C177.054 23.4779 177.04 23.2202 177.027 22.964C177.021 22.7072 176.934 22.4584 176.779 22.2511C176.683 22.12 176.555 22.0143 176.407 21.9435Z" fill="#3A3B7B"/>
<path d="M181.662 25.9003C181.647 25.919 181.631 25.9384 181.615 25.9585C181.494 25.2773 181.382 24.5964 181.27 23.9144C181.23 23.6697 181.189 23.424 181.149 23.179L181.144 23.1516L181.129 23.128C181.101 23.0836 181.098 23.04 181.098 22.947V22.9363L181.097 22.9256C181.066 22.7337 180.978 22.5551 180.842 22.4131C180.707 22.2716 180.531 22.1731 180.338 22.1303C180.145 22.0838 179.942 22.094 179.755 22.1598C179.568 22.2254 179.406 22.3434 179.287 22.4988C179.189 22.6181 179.108 22.7504 179.048 22.8918C178.911 23.1964 178.772 23.5018 178.634 23.8079L178.631 23.8132C178.285 24.5776 177.936 25.347 177.597 26.1226L177.596 26.1251C177.388 26.6279 177.217 27.1578 177.046 27.686C177.012 27.7914 176.978 27.8968 176.943 28.0019C176.881 28.1686 176.854 28.3457 176.864 28.5227C176.852 28.6811 176.891 28.8392 176.975 28.9755C177.06 29.1146 177.188 29.224 177.34 29.2884C177.502 29.3576 177.682 29.3723 177.853 29.3302C178.023 29.2881 178.175 29.1919 178.283 29.0566C178.422 28.89 178.541 28.7082 178.638 28.5157C178.925 27.942 179.199 27.3613 179.472 26.7831C179.578 26.5595 179.68 26.3592 179.797 26.141C179.805 26.1679 179.813 26.1942 179.822 26.2205C179.944 26.7471 180.151 27.2515 180.434 27.7153C180.487 27.8135 180.562 27.8994 180.652 27.967C180.744 28.0354 180.85 28.0834 180.962 28.1077C181.075 28.1321 181.191 28.1322 181.304 28.1081C181.416 28.084 181.522 28.0359 181.614 27.9678L181.796 27.835L183.204 26.675L183.121 27.194C183.007 27.9074 182.893 28.6148 182.773 29.3225C182.694 29.6361 182.694 29.9637 182.773 30.2772C182.807 30.4537 182.894 30.6161 183.024 30.7439C183.154 30.8726 183.321 30.9601 183.502 30.995C183.684 31.0299 183.872 31.0106 184.043 30.9395C184.211 30.8695 184.353 30.7525 184.453 30.6033C184.686 30.3216 184.83 29.9805 184.87 29.6207C184.93 29.1125 184.997 28.5974 185.065 28.0825C185.143 27.489 185.22 26.8957 185.286 26.3137L185.286 26.3119C185.35 25.6749 185.38 25.0352 185.378 24.3952C185.392 24.193 185.34 23.9915 185.231 23.8193C185.121 23.6465 184.957 23.5121 184.765 23.4353C184.564 23.3461 184.34 23.3223 184.124 23.3674C183.91 23.4121 183.717 23.5224 183.571 23.6821C183.312 23.9171 183.068 24.1685 182.842 24.4347L182.84 24.4365C182.593 24.7372 182.348 25.0438 182.105 25.3484C181.957 25.5336 181.809 25.7184 181.662 25.9003Z" fill="#3A3B7B"/>
</g>
<g clip-path="url(#clip2_54670_27083)" filter="url(#filter3_dd_54670_27083)">
<path d="M206.457 26.1426C207.43 26.8211 209.007 26.8211 209.98 26.1426C210.953 25.4641 210.953 24.364 209.98 23.6855C209.007 23.007 207.43 23.007 206.457 23.6855C205.485 24.364 205.485 25.4641 206.457 26.1426Z" fill="#25CAAC"/>
<path d="M216.554 16.9286C218.013 17.9464 220.378 17.9464 221.837 16.9286C223.297 15.9108 223.297 14.2608 221.837 13.243C220.378 12.2253 218.013 12.2253 216.554 13.243C215.094 14.2608 215.094 15.9108 216.554 16.9286Z" fill="#25CAAC"/>
<path d="M211.194 21.5356C212.41 22.3837 214.381 22.3837 215.597 21.5356C216.813 20.6875 216.813 19.3124 215.597 18.4642C214.381 17.6162 212.41 17.6162 211.194 18.4642C209.978 19.3124 209.978 20.6875 211.194 21.5356Z" fill="#25CAAC"/>
<path d="M203.375 20.9214C204.105 21.4302 205.287 21.4302 206.017 20.9214C206.747 20.4125 206.747 19.5875 206.017 19.0785C205.287 18.5697 204.105 18.5697 203.375 19.0785C202.645 19.5875 202.645 20.4125 203.375 20.9214Z" fill="#25CAAC"/>
<path d="M211.194 11.7074C212.41 12.5555 214.381 12.5555 215.597 11.7074C216.813 10.8592 216.813 9.48416 215.597 8.63603C214.381 7.78791 212.41 7.78791 211.194 8.63603C209.978 9.48416 209.978 10.8592 211.194 11.7074Z" fill="#25CAAC"/>
<path d="M206.457 16.3144C207.43 16.9929 209.007 16.9929 209.98 16.3144C210.953 15.6359 210.953 14.5358 209.98 13.8573C209.007 13.1788 207.43 13.1788 206.457 13.8573C205.485 14.5358 205.485 15.6359 206.457 16.3144Z" fill="#25CAAC"/>
<path d="M211.194 31.3639C212.41 32.212 214.381 32.212 215.597 31.3639C216.813 30.5157 216.813 29.1407 215.597 28.2925C214.381 27.4444 212.41 27.4444 211.194 28.2925C209.978 29.1407 209.978 30.5157 211.194 31.3639Z" fill="#25CAAC"/>
<path d="M222.976 21.8428C224.435 22.8605 226.801 22.8605 228.26 21.8428C229.719 20.825 229.719 19.1749 228.26 18.1572C226.801 17.1394 224.435 17.1394 222.976 18.1572C221.517 19.1749 221.517 20.825 222.976 21.8428Z" fill="#25CAAC"/>
<path d="M216.554 26.7568C218.013 27.7746 220.378 27.7746 221.837 26.7568C223.297 25.7391 223.297 24.089 221.837 23.0712C220.378 22.0535 218.013 22.0535 216.554 23.0712C215.094 24.089 215.094 25.7391 216.554 26.7568Z" fill="#25CAAC"/>
</g>
<defs>
<filter id="filter0_dd_54670_27083" x="8.646" y="4.99994" width="100" height="32" filterUnits="userSpaceOnUse" color-interpolation-filters="sRGB">
<feFlood flood-opacity="0" result="BackgroundImageFix"/>
<feColorMatrix in="SourceAlpha" type="matrix" values="0 0 0 0 0 0 0 0 0 0 0 0 0 0 0 0 0 0 127 0" result="hardAlpha"/>
<feOffset dy="1"/>
<feGaussianBlur stdDeviation="1"/>
<feColorMatrix type="matrix" values="0 0 0 0 0 0 0 0 0 0 0 0 0 0 0 0 0 0 0.3 0"/>
<feBlend mode="normal" in2="BackgroundImageFix" result="effect1_dropShadow_54670_27083"/>
<feColorMatrix in="SourceAlpha" type="matrix" values="0 0 0 0 0 0 0 0 0 0 0 0 0 0 0 0 0 0 127 0" result="hardAlpha"/>
<feMorphology radius="1" operator="dilate" in="SourceAlpha" result="effect2_dropShadow_54670_27083"/>
<feOffset dy="1"/>
<feGaussianBlur stdDeviation="1.5"/>
<feColorMatrix type="matrix" values="0 0 0 0 0 0 0 0 0 0 0 0 0 0 0 0 0 0 0.15 0"/>
<feBlend mode="normal" in2="effect1_dropShadow_54670_27083" result="effect2_dropShadow_54670_27083"/>
<feBlend mode="normal" in="SourceGraphic" in2="effect2_dropShadow_54670_27083" result="shape"/>
</filter>
<filter id="filter1_dd_54670_27083" x="112.646" y="4.99994" width="32" height="32" filterUnits="userSpaceOnUse" color-interpolation-filters="sRGB">
<feFlood flood-opacity="0" result="BackgroundImageFix"/>
<feColorMatrix in="SourceAlpha" type="matrix" values="0 0 0 0 0 0 0 0 0 0 0 0 0 0 0 0 0 0 127 0" result="hardAlpha"/>
<feOffset dy="1"/>
<feGaussianBlur stdDeviation="1"/>
<feColorMatrix type="matrix" values="0 0 0 0 0 0 0 0 0 0 0 0 0 0 0 0 0 0 0.3 0"/>
<feBlend mode="normal" in2="BackgroundImageFix" result="effect1_dropShadow_54670_27083"/>
<feColorMatrix in="SourceAlpha" type="matrix" values="0 0 0 0 0 0 0 0 0 0 0 0 0 0 0 0 0 0 127 0" result="hardAlpha"/>
<feMorphology radius="1" operator="dilate" in="SourceAlpha" result="effect2_dropShadow_54670_27083"/>
<feOffset dy="1"/>
<feGaussianBlur stdDeviation="1.5"/>
<feColorMatrix type="matrix" values="0 0 0 0 0 0 0 0 0 0 0 0 0 0 0 0 0 0 0.15 0"/>
<feBlend mode="normal" in2="effect1_dropShadow_54670_27083" result="effect2_dropShadow_54670_27083"/>
<feBlend mode="normal" in="SourceGraphic" in2="effect2_dropShadow_54670_27083" result="shape"/>
</filter>
<filter id="filter2_dd_54670_27083" x="148.646" y="4.99994" width="46.1818" height="32" filterUnits="userSpaceOnUse" color-interpolation-filters="sRGB">
<feFlood flood-opacity="0" result="BackgroundImageFix"/>
<feColorMatrix in="SourceAlpha" type="matrix" values="0 0 0 0 0 0 0 0 0 0 0 0 0 0 0 0 0 0 127 0" result="hardAlpha"/>
<feOffset dy="1"/>
<feGaussianBlur stdDeviation="1"/>
<feColorMatrix type="matrix" values="0 0 0 0 0 0 0 0 0 0 0 0 0 0 0 0 0 0 0.3 0"/>
<feBlend mode="normal" in2="BackgroundImageFix" result="effect1_dropShadow_54670_27083"/>
<feColorMatrix in="SourceAlpha" type="matrix" values="0 0 0 0 0 0 0 0 0 0 0 0 0 0 0 0 0 0 127 0" result="hardAlpha"/>
<feMorphology radius="1" operator="dilate" in="SourceAlpha" result="effect2_dropShadow_54670_27083"/>
<feOffset dy="1"/>
<feGaussianBlur stdDeviation="1.5"/>
<feColorMatrix type="matrix" values="0 0 0 0 0 0 0 0 0 0 0 0 0 0 0 0 0 0 0.15 0"/>
<feBlend mode="normal" in2="effect1_dropShadow_54670_27083" result="effect2_dropShadow_54670_27083"/>
<feBlend mode="normal" in="SourceGraphic" in2="effect2_dropShadow_54670_27083" result="shape"/>
</filter>
<filter id="filter3_dd_54670_27083" x="198.828" y="4.99994" width="34.5264" height="32" filterUnits="userSpaceOnUse" color-interpolation-filters="sRGB">
<feFlood flood-opacity="0" result="BackgroundImageFix"/>
<feColorMatrix in="SourceAlpha" type="matrix" values="0 0 0 0 0 0 0 0 0 0 0 0 0 0 0 0 0 0 127 0" result="hardAlpha"/>
<feOffset dy="1"/>
<feGaussianBlur stdDeviation="1"/>
<feColorMatrix type="matrix" values="0 0 0 0 0 0 0 0 0 0 0 0 0 0 0 0 0 0 0.3 0"/>
<feBlend mode="normal" in2="BackgroundImageFix" result="effect1_dropShadow_54670_27083"/>
<feColorMatrix in="SourceAlpha" type="matrix" values="0 0 0 0 0 0 0 0 0 0 0 0 0 0 0 0 0 0 127 0" result="hardAlpha"/>
<feMorphology radius="1" operator="dilate" in="SourceAlpha" result="effect2_dropShadow_54670_27083"/>
<feOffset dy="1"/>
<feGaussianBlur stdDeviation="1.5"/>
<feColorMatrix type="matrix" values="0 0 0 0 0 0 0 0 0 0 0 0 0 0 0 0 0 0 0.15 0"/>
<feBlend mode="normal" in2="effect1_dropShadow_54670_27083" result="effect2_dropShadow_54670_27083"/>
<feBlend mode="normal" in="SourceGraphic" in2="effect2_dropShadow_54670_27083" result="shape"/>
</filter>
<clipPath id="clip0_54670_27083">
<rect width="24" height="24" fill="white" transform="translate(116.646 7.99994)"/>
</clipPath>
<clipPath id="clip1_54670_27083">
<rect width="38.1818" height="24" fill="white" transform="translate(152.646 7.99994)"/>
</clipPath>
<clipPath id="clip2_54670_27083">
<rect width="26.5263" height="24" fill="white" transform="translate(202.828 7.99994)"/>
</clipPath>
</defs>
</svg>
